<svg width="320" height="76" viewBox="0 0 320 76" fill="none" xmlns="http://www.w3.org/2000/svg">
<path d="M84.3303 74.8015L92.5821 49.302H98.4557L106.78 74.8015H101.338L99.6809 69.3761H91.1768L89.4832 74.8015H84.3303ZM92.0777 65.2889H98.744L95.4288 53.4253L92.0777 65.2889Z" fill="white"/>
<path d="M114.022 75.1632C112.893 75.1632 111.908 74.9583 111.067 74.5483C110.226 74.1384 109.577 73.5115 109.121 72.6675C108.665 71.8236 108.436 70.7626 108.436 69.4846V55.2338H113.229V68.3634C113.229 69.2797 113.457 69.9789 113.913 70.4612C114.394 70.9193 115.067 71.1484 115.931 71.1484C116.412 71.1484 116.868 71.1002 117.301 71.0037C117.733 70.9073 118.166 70.7747 118.598 70.6059C119.03 70.413 119.487 70.1959 119.967 69.9548V55.2338H124.76V69.4123C124.76 69.8222 124.796 70.1477 124.868 70.3889C124.964 70.63 125.096 70.8108 125.264 70.9314C125.432 71.0278 125.625 71.0761 125.841 71.0761C126.129 71.0761 126.417 71.0158 126.706 70.8952L127.102 74.3313C126.838 74.5001 126.537 74.6448 126.201 74.7654C125.865 74.8859 125.492 74.9824 125.084 75.0547C124.7 75.1271 124.291 75.1632 123.859 75.1632C123.066 75.1632 122.394 74.9944 121.841 74.6569C121.288 74.2952 120.856 73.7888 120.544 73.1377C119.847 73.5477 119.15 73.9094 118.454 74.2228C117.757 74.5363 117.048 74.7654 116.328 74.91C115.607 75.0788 114.838 75.1632 114.022 75.1632Z" fill="white"/>
<path d="M128.266 65.2889C128.266 62.9741 128.626 61.045 129.347 59.5018C130.091 57.9586 131.196 56.8012 132.662 56.0295C134.127 55.2579 135.905 54.8721 137.995 54.8721C138.715 54.8721 139.436 54.9083 140.157 54.9806C140.901 55.0288 141.622 55.1132 142.319 55.2338C143.015 55.3303 143.64 55.4629 144.193 55.6317L143.544 59.6465C142.991 59.5259 142.427 59.4295 141.85 59.3571C141.274 59.2607 140.697 59.1883 140.121 59.1401C139.568 59.0919 139.028 59.0678 138.499 59.0678C137.346 59.0678 136.373 59.2969 135.58 59.755C134.812 60.189 134.223 60.8642 133.815 61.7805C133.406 62.6727 133.202 63.818 133.202 65.2166C133.202 66.5187 133.406 67.6038 133.815 68.4719C134.247 69.3158 134.86 69.9548 135.652 70.3889C136.469 70.7988 137.442 71.0037 138.571 71.0037C139.124 71.0037 139.688 70.9917 140.265 70.9676C140.865 70.9193 141.466 70.847 142.067 70.7505C142.667 70.6541 143.256 70.5456 143.832 70.425L144.553 74.259C143.592 74.5242 142.475 74.7413 141.202 74.91C139.953 75.0788 138.739 75.1632 137.562 75.1632C134.463 75.1632 132.133 74.3675 130.572 72.776C129.034 71.1605 128.266 68.6648 128.266 65.2889Z" fill="white"/>
<path d="M154.243 75.1632C152.994 75.1632 151.937 74.9221 151.072 74.4398C150.231 73.9576 149.594 73.2221 149.162 72.2335C148.754 71.2449 148.549 69.9789 148.549 68.4357V58.7423H145.559V55.5593L148.549 55.2338L149.126 50.8935H153.342V55.2338H158.855V58.7784H153.342V68.0378C153.342 69.147 153.546 69.9307 153.954 70.3889C154.363 70.847 154.999 71.0761 155.864 71.0761C156.345 71.0761 156.837 71.0399 157.342 70.9676C157.846 70.8711 158.375 70.7505 158.927 70.6059L159.576 74.259C158.615 74.5966 157.678 74.8256 156.765 74.9462C155.876 75.0909 155.035 75.1632 154.243 75.1632Z" fill="white"/>
<path d="M164.128 52.4488C163.119 52.4488 162.386 52.2558 161.93 51.87C161.497 51.4601 161.281 50.8332 161.281 49.9892C161.281 49.1212 161.497 48.4942 161.93 48.1084C162.386 47.7226 163.119 47.5297 164.128 47.5297C165.137 47.5297 165.857 47.7226 166.29 48.1084C166.746 48.4942 166.974 49.1212 166.974 49.9892C166.974 50.8332 166.746 51.4601 166.29 51.87C165.857 52.2558 165.137 52.4488 164.128 52.4488ZM161.713 74.8015V55.2338H166.506V74.8015H161.713Z" fill="white"/>
<path d="M169.508 64.9996C169.508 63.3358 169.652 61.8769 169.94 60.6231C170.252 59.3692 170.745 58.3203 171.417 57.4763C172.114 56.6324 173.051 55.9934 174.228 55.5593C175.405 55.1012 176.859 54.8721 178.588 54.8721C180.342 54.8721 181.795 55.1012 182.948 55.5593C184.126 55.9934 185.062 56.6324 185.759 57.4763C186.456 58.3203 186.948 59.3692 187.236 60.6231C187.549 61.8769 187.705 63.3358 187.705 64.9996C187.705 66.6634 187.537 68.1343 187.2 69.4123C186.888 70.6903 186.372 71.7512 185.651 72.5952C184.93 73.4391 183.993 74.0781 182.84 74.5122C181.687 74.9462 180.27 75.1632 178.588 75.1632C176.931 75.1632 175.513 74.9462 174.336 74.5122C173.183 74.0781 172.246 73.4391 171.526 72.5952C170.829 71.7512 170.312 70.6903 169.976 69.4123C169.664 68.1343 169.508 66.6634 169.508 64.9996ZM174.408 64.9996C174.408 66.6152 174.552 67.9052 174.841 68.8697C175.129 69.8101 175.585 70.4853 176.21 70.8952C176.835 71.3051 177.627 71.5101 178.588 71.5101C179.597 71.5101 180.402 71.3051 181.003 70.8952C181.627 70.4853 182.072 69.8101 182.336 68.8697C182.624 67.9052 182.768 66.6152 182.768 64.9996C182.768 63.384 182.636 62.106 182.372 61.1656C182.132 60.2252 181.699 59.55 181.075 59.1401C180.474 58.7302 179.645 58.5252 178.588 58.5252C177.555 58.5252 176.727 58.7302 176.102 59.1401C175.501 59.55 175.069 60.2252 174.805 61.1656C174.54 62.106 174.408 63.384 174.408 64.9996Z" fill="white"/>
<path d="M190.71 74.8015V55.2338H195.07V56.9338C195.862 56.4756 196.619 56.1019 197.34 55.8125C198.061 55.4991 198.769 55.27 199.466 55.1253C200.187 54.9565 200.943 54.8721 201.736 54.8721C202.985 54.8721 204.018 55.1012 204.835 55.5593C205.676 55.9934 206.3 56.6203 206.709 57.4402C207.117 58.26 207.321 59.2486 207.321 60.4061V74.8015H202.529V61.9252C202.529 60.9124 202.289 60.1649 201.808 59.6827C201.352 59.1763 200.655 58.9231 199.718 58.9231C199.238 58.9231 198.769 58.9834 198.313 59.1039C197.856 59.2004 197.4 59.333 196.943 59.5018C196.487 59.6706 196.007 59.8876 195.502 60.1529V74.8015H190.71Z" fill="white"/>
<path d="M221.015 74.8015V49.4828H225.952V61.238H236.69V49.4828H241.627V74.8015H236.69V65.6868H225.952V74.8015H221.015Z" fill="white"/>
<path d="M244.743 64.9996C244.743 63.3358 244.887 61.8769 245.175 60.6231C245.488 59.3692 245.98 58.3203 246.653 57.4763C247.349 56.6324 248.286 55.9934 249.463 55.5593C250.641 55.1012 252.094 54.8721 253.824 54.8721C255.577 54.8721 257.031 55.1012 258.184 55.5593C259.361 55.9934 260.298 56.6324 260.994 57.4763C261.691 58.3203 262.184 59.3692 262.472 60.6231C262.784 61.8769 262.94 63.3358 262.94 64.9996C262.94 66.6634 262.772 68.1343 262.436 69.4123C262.123 70.6903 261.607 71.7512 260.886 72.5952C260.166 73.4391 259.229 74.0781 258.076 74.5122C256.923 74.9462 255.505 75.1632 253.824 75.1632C252.166 75.1632 250.749 74.9462 249.572 74.5122C248.418 74.0781 247.482 73.4391 246.761 72.5952C246.064 71.7512 245.548 70.6903 245.211 69.4123C244.899 68.1343 244.743 66.6634 244.743 64.9996ZM249.644 64.9996C249.644 66.6152 249.788 67.9052 250.076 68.8697C250.364 69.8101 250.821 70.4853 251.445 70.8952C252.07 71.3051 252.863 71.5101 253.824 71.5101C254.833 71.5101 255.637 71.3051 256.238 70.8952C256.862 70.4853 257.307 69.8101 257.571 68.8697C257.859 67.9052 258.004 66.6152 258.004 64.9996C258.004 63.384 257.871 62.106 257.607 61.1656C257.367 60.2252 256.935 59.55 256.31 59.1401C255.709 58.7302 254.881 58.5252 253.824 58.5252C252.791 58.5252 251.962 58.7302 251.337 59.1401C250.737 59.55 250.304 60.2252 250.04 61.1656C249.776 62.106 249.644 63.384 249.644 64.9996Z" fill="white"/>
<path d="M271.495 75.1632C270.366 75.1632 269.381 74.9583 268.54 74.5483C267.699 74.1384 267.051 73.5115 266.594 72.6675C266.138 71.8236 265.91 70.7626 265.91 69.4846V55.2338H270.702V68.3634C270.702 69.2797 270.93 69.9789 271.387 70.4612C271.867 70.9193 272.54 71.1484 273.405 71.1484C273.885 71.1484 274.342 71.1002 274.774 71.0037C275.206 70.9073 275.639 70.7747 276.071 70.6059C276.504 70.413 276.96 70.1959 277.441 69.9548V55.2338H282.233V69.4123C282.233 69.8222 282.269 70.1477 282.341 70.3889C282.437 70.63 282.569 70.8108 282.738 70.9314C282.906 71.0278 283.098 71.0761 283.314 71.0761C283.602 71.0761 283.891 71.0158 284.179 70.8952L284.575 74.3313C284.311 74.5001 284.011 74.6448 283.675 74.7654C283.338 74.8859 282.966 74.9824 282.557 75.0547C282.173 75.1271 281.765 75.1632 281.332 75.1632C280.54 75.1632 279.867 74.9944 279.314 74.6569C278.762 74.2952 278.329 73.7888 278.017 73.1377C277.32 73.5477 276.624 73.9094 275.927 74.2228C275.231 74.5363 274.522 74.7654 273.801 74.91C273.08 75.0788 272.312 75.1632 271.495 75.1632Z" fill="white"/>
<path d="M285.66 74.042L286.237 70.4974C286.669 70.642 287.149 70.7867 287.678 70.9314C288.206 71.052 288.759 71.1605 289.336 71.2569C289.936 71.3534 290.525 71.4257 291.101 71.4739C291.678 71.5222 292.218 71.5463 292.723 71.5463C293.876 71.5463 294.717 71.3775 295.245 71.0399C295.774 70.6782 296.038 70.1477 296.038 69.4484C296.038 69.0626 295.93 68.7371 295.714 68.4719C295.521 68.1825 295.209 67.9414 294.777 67.7485C294.368 67.5315 293.852 67.3386 293.227 67.1698C292.627 66.9769 291.93 66.784 291.137 66.591C290.296 66.3981 289.564 66.145 288.939 65.8315C288.315 65.4939 287.774 65.096 287.318 64.6379C286.885 64.1797 286.561 63.6493 286.345 63.0464C286.153 62.4436 286.056 61.7564 286.056 60.9848C286.056 58.9834 286.705 57.4643 288.002 56.4274C289.299 55.3905 291.221 54.8721 293.768 54.8721C294.56 54.8721 295.305 54.9203 296.002 55.0168C296.699 55.0891 297.359 55.1976 297.984 55.3423C298.632 55.4629 299.221 55.6196 299.749 55.8125L299.137 59.4295C298.608 59.2607 298.08 59.116 297.551 58.9954C297.023 58.8749 296.446 58.7784 295.822 58.7061C295.221 58.6337 294.536 58.5976 293.768 58.5976C292.735 58.5976 291.954 58.7664 291.425 59.1039C290.897 59.4174 290.633 59.8997 290.633 60.5507C290.633 60.9365 290.729 61.2621 290.921 61.5273C291.113 61.7684 291.389 61.9734 291.75 62.1422C292.11 62.311 292.555 62.4677 293.083 62.6124C293.612 62.7571 294.2 62.9018 294.849 63.0464C295.738 63.2634 296.542 63.5287 297.263 63.8422C297.984 64.1315 298.596 64.4932 299.101 64.9272C299.629 65.3613 300.038 65.9159 300.326 66.591C300.638 67.2421 300.794 68.0378 300.794 68.9782C300.794 69.8704 300.65 70.6661 300.362 71.3654C300.098 72.0406 299.713 72.6193 299.209 73.1016C298.704 73.5838 298.116 73.9817 297.443 74.2952C296.771 74.5845 296.026 74.8015 295.209 74.9462C294.392 75.0909 293.54 75.1632 292.651 75.1632C291.786 75.1632 290.957 75.115 290.164 75.0186C289.372 74.9462 288.591 74.8256 287.822 74.6569C287.077 74.4881 286.357 74.2831 285.66 74.042Z" fill="white"/>
<path d="M311.676 75.1632C310.211 75.1632 308.913 74.9824 307.784 74.6207C306.655 74.2349 305.694 73.6562 304.902 72.8845C304.133 72.0888 303.544 71.0881 303.136 69.8825C302.752 68.6527 302.559 67.1939 302.559 65.506C302.559 63.5528 302.788 61.9011 303.244 60.5507C303.725 59.1763 304.397 58.0791 305.262 57.2593C306.127 56.4153 307.136 55.8125 308.289 55.4508C309.442 55.065 310.703 54.8721 312.072 54.8721C314.787 54.8721 316.781 55.5593 318.054 56.9338C319.351 58.3082 320 60.5507 320 63.6613C320 63.8783 320 64.1556 320 64.4932C320 64.8308 319.976 65.1563 319.928 65.4698C319.375 65.518 318.667 65.5783 317.802 65.6506C316.937 65.723 315.964 65.7953 314.883 65.8677C313.802 65.94 312.637 66.0003 311.388 66.0485C310.139 66.0967 308.853 66.145 307.532 66.1932C307.508 66.2655 307.496 66.3499 307.496 66.4464C307.496 66.5428 307.496 66.6393 307.496 66.7357C307.496 67.8449 307.676 68.7371 308.037 69.4123C308.421 70.0633 308.986 70.5576 309.73 70.8952C310.475 71.2087 311.412 71.3654 312.541 71.3654C313.262 71.3654 313.994 71.3293 314.739 71.2569C315.508 71.1605 316.264 71.052 317.009 70.9314C317.778 70.7867 318.523 70.63 319.243 70.4612L319.82 74.0058C319.051 74.2469 318.234 74.464 317.37 74.6569C316.505 74.8256 315.604 74.9462 314.667 75.0186C313.73 75.115 312.733 75.1632 311.676 75.1632ZM307.568 63.0826C308.409 63.0826 309.214 63.0705 309.983 63.0464C310.775 62.9982 311.52 62.962 312.217 62.9379C312.913 62.8897 313.514 62.8535 314.018 62.8294C314.523 62.7812 314.919 62.745 315.207 62.7209C315.183 61.6599 315.039 60.8039 314.775 60.1529C314.535 59.5018 314.15 59.0316 313.622 58.7423C313.117 58.4529 312.481 58.3082 311.712 58.3082C311.232 58.3082 310.763 58.3806 310.307 58.5252C309.85 58.6699 309.43 58.9231 309.046 59.2848C308.661 59.6465 308.337 60.1288 308.073 60.7316C307.832 61.3344 307.664 62.1181 307.568 63.0826Z" fill="white"/>
<path d="M105.693 3.064L104.658 7.32178C104.128 7.13608 103.531 6.97691 102.868 6.84427C102.204 6.6851 101.515 6.55246 100.798 6.44635C100.109 6.34024 99.4056 6.26065 98.6894 6.2076C97.9731 6.15454 97.2967 6.12801 96.66 6.12801C94.9091 6.12801 93.5296 6.40656 92.5216 6.96365C91.54 7.49421 91.0493 8.30332 91.0493 9.39098C91.0493 9.92154 91.1819 10.3991 91.4472 10.8235C91.739 11.2214 92.1767 11.6061 92.7603 11.9775C93.3439 12.3489 94.1133 12.707 95.0683 13.0519C96.0498 13.3967 97.2171 13.7549 98.57 14.1263C100.003 14.5242 101.249 14.9884 102.31 15.519C103.372 16.023 104.247 16.5934 104.937 17.2301C105.653 17.8667 106.17 18.6095 106.489 19.4584C106.834 20.2808 107.006 21.2358 107.006 22.3235C107.006 24.0478 106.542 25.5069 105.613 26.7006C104.711 27.8944 103.372 28.8096 101.594 29.4463C99.8434 30.083 97.6946 30.4013 95.1479 30.4013C94.3255 30.4013 93.4501 30.3615 92.5216 30.2819C91.5931 30.2023 90.6513 30.0962 89.6963 29.9636C88.7678 29.8044 87.8659 29.6187 86.9904 29.4065C86.115 29.1943 85.3324 28.9555 84.6427 28.6902L85.7171 24.4723C86.4334 24.711 87.2027 24.9365 88.025 25.1487C88.8474 25.3344 89.6831 25.5069 90.532 25.666C91.3809 25.7987 92.2298 25.9048 93.0787 25.9844C93.9276 26.064 94.7234 26.1037 95.4662 26.1037C96.7661 26.1037 97.8537 25.9844 98.7292 25.7456C99.6046 25.4803 100.255 25.0957 100.679 24.5916C101.13 24.0876 101.355 23.4775 101.355 22.7612C101.355 22.2041 101.183 21.7133 100.838 21.2889C100.493 20.8644 99.976 20.493 99.2863 20.1747C98.5965 19.8298 97.7078 19.4717 96.6202 19.1003C95.5591 18.7289 94.3122 18.3177 92.8797 17.8667C91.6064 17.4158 90.4922 16.9383 89.5372 16.4342C88.6087 15.9302 87.8393 15.3598 87.2292 14.7231C86.6191 14.0599 86.1548 13.3172 85.8365 12.4948C85.5447 11.6724 85.3988 10.7439 85.3988 9.70932C85.3988 8.54208 85.6242 7.48095 86.0752 6.52594C86.5262 5.54439 87.2027 4.69549 88.1046 3.97923C89.0331 3.26297 90.2004 2.71914 91.6064 2.34774C93.0389 1.94982 94.7102 1.75086 96.6202 1.75086C97.7609 1.75086 98.8883 1.81718 100.003 1.94982C101.143 2.05593 102.204 2.2151 103.186 2.42733C104.194 2.61303 105.03 2.82525 105.693 3.064Z" fill="white"/>
<path d="M109.138 19.538C109.138 16.9913 109.536 14.8691 110.332 13.1712C111.154 11.4734 112.375 10.2001 113.993 9.35119C115.611 8.50229 117.574 8.07784 119.882 8.07784C120.678 8.07784 121.474 8.11763 122.27 8.19721C123.092 8.25027 123.888 8.34312 124.657 8.47576C125.427 8.58187 126.116 8.72778 126.726 8.91347L126.01 13.3304C125.4 13.1978 124.777 13.0917 124.14 13.0121C123.503 12.906 122.867 12.8264 122.23 12.7733C121.62 12.7203 121.023 12.6937 120.439 12.6937C119.166 12.6937 118.092 12.9458 117.216 13.4498C116.367 13.9273 115.717 14.6701 115.266 15.6782C114.815 16.6597 114.59 17.9198 114.59 19.4584C114.59 20.891 114.815 22.0847 115.266 23.0397C115.744 23.9682 116.42 24.6712 117.296 25.1487C118.198 25.5997 119.272 25.8252 120.519 25.8252C121.129 25.8252 121.752 25.8119 122.389 25.7854C123.052 25.7323 123.716 25.6528 124.379 25.5467C125.042 25.4405 125.692 25.3212 126.329 25.1885L127.124 29.4065C126.063 29.6983 124.83 29.9371 123.424 30.1228C122.044 30.3085 120.705 30.4013 119.405 30.4013C115.983 30.4013 113.409 29.5259 111.685 27.775C109.987 25.9976 109.138 23.252 109.138 19.538Z" fill="white"/>
<path d="M128.717 24.3927C128.717 23.0663 128.969 21.9919 129.473 21.1695C129.977 20.3206 130.746 19.6574 131.781 19.1799C132.842 18.6758 134.155 18.2912 135.72 18.0259C137.312 17.7341 139.169 17.5086 141.291 17.3494V15.3598C141.291 14.4048 140.933 13.7018 140.217 13.2508C139.501 12.7733 138.466 12.5346 137.113 12.5346C136.556 12.5346 135.933 12.5611 135.243 12.6142C134.553 12.6672 133.837 12.7601 133.094 12.8927C132.351 13.0253 131.595 13.211 130.826 13.4498L129.911 9.23181C131.105 8.88694 132.365 8.6084 133.691 8.39617C135.044 8.18395 136.304 8.07784 137.471 8.07784C139.567 8.07784 141.291 8.35638 142.644 8.91347C143.997 9.44404 144.992 10.2531 145.629 11.3408C146.292 12.4019 146.624 13.7283 146.624 15.32V23.9152C146.624 24.658 146.73 25.162 146.942 25.4273C147.154 25.6926 147.419 25.8252 147.738 25.8252C147.87 25.8252 148.03 25.8119 148.215 25.7854C148.401 25.7589 148.573 25.7058 148.733 25.6262L149.17 29.4861C148.719 29.7514 148.202 29.9636 147.618 30.1228C147.035 30.3085 146.411 30.4013 145.748 30.4013C144.687 30.4013 143.838 30.1891 143.201 29.7646C142.565 29.3137 142.1 28.6372 141.809 27.7352C141.145 28.2393 140.442 28.7035 139.7 29.128C138.957 29.5259 138.161 29.831 137.312 30.0432C136.463 30.2819 135.522 30.4013 134.487 30.4013C133.611 30.4013 132.829 30.2687 132.139 30.0034C131.449 29.7381 130.839 29.3534 130.309 28.8494C129.805 28.3188 129.407 27.6822 129.115 26.9394C128.85 26.1966 128.717 25.3477 128.717 24.3927ZM134.089 24.0345C134.089 24.963 134.301 25.666 134.726 26.1435C135.177 26.5945 135.774 26.82 136.516 26.82C137.073 26.82 137.63 26.7272 138.188 26.5415C138.771 26.3558 139.328 26.117 139.859 25.8252C140.416 25.5069 140.893 25.1355 141.291 24.711V20.2941C140.151 20.3471 139.129 20.4532 138.227 20.6124C137.352 20.7716 136.596 20.9838 135.959 21.2491C135.349 21.5144 134.885 21.8725 134.566 22.3235C134.248 22.7745 134.089 23.3448 134.089 24.0345Z" fill="white"/>
<path d="M151.437 30.0034V8.47576H156.252V10.346C157.127 9.84196 157.963 9.43077 158.759 9.11243C159.555 8.76757 160.337 8.51555 161.107 8.35638C161.903 8.17068 162.738 8.07784 163.614 8.07784C164.993 8.07784 166.134 8.32985 167.036 8.83389C167.964 9.3114 168.654 10.0011 169.105 10.9031C169.556 11.805 169.781 12.8927 169.781 14.1661V30.0034H164.489V15.8373C164.489 14.7231 164.224 13.9008 163.693 13.3702C163.189 12.8131 162.42 12.5346 161.385 12.5346C160.855 12.5346 160.337 12.6009 159.833 12.7335C159.329 12.8396 158.825 12.9856 158.321 13.1712C157.817 13.3569 157.287 13.5957 156.73 13.8875V30.0034H151.437Z" fill="white"/>
<path d="M187.665 30.0432L187.029 28.2923C185.914 29.0086 184.813 29.5391 183.726 29.884C182.665 30.2289 181.551 30.4013 180.383 30.4013C178.049 30.4013 176.245 29.4861 174.972 27.6556C173.725 25.7987 173.101 23.1326 173.101 19.6574C173.101 17.0046 173.459 14.8293 174.176 13.1315C174.892 11.4337 175.993 10.1736 177.478 9.35119C178.991 8.50229 180.887 8.07784 183.169 8.07784C183.779 8.07784 184.402 8.10436 185.039 8.15742C185.702 8.21047 186.352 8.30332 186.989 8.43596V0.557092H192.321V30.0432H187.665ZM186.989 24.5121V12.455C186.326 12.2693 185.715 12.1499 185.158 12.0969C184.601 12.0173 184.071 11.9775 183.567 11.9775C182.426 11.9775 181.484 12.203 180.741 12.6539C180.025 13.1049 179.481 13.861 179.11 14.9221C178.765 15.9832 178.593 17.4025 178.593 19.1799C178.593 20.745 178.739 22.0317 179.03 23.0397C179.349 24.0478 179.786 24.7906 180.343 25.2681C180.927 25.7456 181.63 25.9844 182.452 25.9844C182.93 25.9844 183.407 25.9313 183.885 25.8252C184.363 25.7191 184.853 25.5599 185.357 25.3477C185.861 25.1355 186.405 24.8569 186.989 24.5121Z" fill="white"/>
<path d="M199.142 5.41175C198.027 5.41175 197.218 5.19953 196.714 4.77508C196.237 4.3241 195.998 3.63436 195.998 2.70587C195.998 1.75086 196.237 1.06113 196.714 0.636676C197.218 0.212225 198.027 0 199.142 0C200.256 0 201.052 0.212225 201.529 0.636676C202.033 1.06113 202.285 1.75086 202.285 2.70587C202.285 3.63436 202.033 4.3241 201.529 4.77508C201.052 5.19953 200.256 5.41175 199.142 5.41175ZM196.476 30.0034V8.47576H201.768V30.0034H196.476Z" fill="white"/>
<path d="M205.918 30.0034V8.47576H210.733V10.346C211.609 9.84196 212.444 9.43077 213.24 9.11243C214.036 8.76757 214.819 8.51555 215.588 8.35638C216.384 8.17068 217.219 8.07784 218.095 8.07784C219.474 8.07784 220.615 8.32985 221.517 8.83389C222.445 9.3114 223.135 10.0011 223.586 10.9031C224.037 11.805 224.263 12.8927 224.263 14.1661V30.0034H218.97V15.8373C218.97 14.7231 218.705 13.9008 218.174 13.3702C217.67 12.8131 216.901 12.5346 215.866 12.5346C215.336 12.5346 214.819 12.6009 214.315 12.7335C213.811 12.8396 213.307 12.9856 212.802 13.1712C212.298 13.3569 211.768 13.5957 211.211 13.8875V30.0034H205.918Z" fill="white"/>
<path d="M227.071 24.3927C227.071 23.0663 227.323 21.9919 227.827 21.1695C228.331 20.3206 229.1 19.6574 230.135 19.1799C231.196 18.6758 232.509 18.2912 234.074 18.0259C235.666 17.7341 237.523 17.5086 239.645 17.3494V15.3598C239.645 14.4048 239.287 13.7018 238.571 13.2508C237.855 12.7733 236.82 12.5346 235.467 12.5346C234.91 12.5346 234.287 12.5611 233.597 12.6142C232.907 12.6672 232.191 12.7601 231.448 12.8927C230.705 13.0253 229.949 13.211 229.18 13.4498L228.265 9.23181C229.458 8.88694 230.718 8.6084 232.045 8.39617C233.398 8.18395 234.658 8.07784 235.825 8.07784C237.921 8.07784 239.645 8.35638 240.998 8.91347C242.351 9.44404 243.346 10.2531 243.983 11.3408C244.646 12.4019 244.977 13.7283 244.977 15.32V23.9152C244.977 24.658 245.083 25.162 245.296 25.4273C245.508 25.6926 245.773 25.8252 246.092 25.8252C246.224 25.8252 246.383 25.8119 246.569 25.7854C246.755 25.7589 246.927 25.7058 247.086 25.6262L247.524 29.4861C247.073 29.7514 246.556 29.9636 245.972 30.1228C245.389 30.3085 244.765 30.4013 244.102 30.4013C243.041 30.4013 242.192 30.1891 241.555 29.7646C240.919 29.3137 240.454 28.6372 240.162 27.7352C239.499 28.2393 238.796 28.7035 238.054 29.128C237.311 29.5259 236.515 29.831 235.666 30.0432C234.817 30.2819 233.875 30.4013 232.841 30.4013C231.965 30.4013 231.183 30.2687 230.493 30.0034C229.803 29.7381 229.193 29.3534 228.663 28.8494C228.158 28.3188 227.761 27.6822 227.469 26.9394C227.203 26.1966 227.071 25.3477 227.071 24.3927ZM232.443 24.0345C232.443 24.963 232.655 25.666 233.079 26.1435C233.53 26.5945 234.127 26.82 234.87 26.82C235.427 26.82 235.984 26.7272 236.541 26.5415C237.125 26.3558 237.682 26.117 238.213 25.8252C238.77 25.5069 239.247 25.1355 239.645 24.711V20.2941C238.504 20.3471 237.483 20.4532 236.581 20.6124C235.706 20.7716 234.95 20.9838 234.313 21.2491C233.703 21.5144 233.239 21.8725 232.92 22.3235C232.602 22.7745 232.443 23.3448 232.443 24.0345Z" fill="white"/>
<path d="M254.282 30.0034L246.602 8.55534L252.213 8.39617L257.426 25.2681L262.44 8.39617L268.011 8.55534L260.251 30.0034H254.282Z" fill="white"/>
<path d="M273.053 5.41175C271.939 5.41175 271.129 5.19953 270.625 4.77508C270.148 4.3241 269.909 3.63436 269.909 2.70587C269.909 1.75086 270.148 1.06113 270.625 0.636676C271.129 0.212225 271.939 0 273.053 0C274.167 0 274.963 0.212225 275.44 0.636676C275.944 1.06113 276.196 1.75086 276.196 2.70587C276.196 3.63436 275.944 4.3241 275.44 4.77508C274.963 5.19953 274.167 5.41175 273.053 5.41175ZM270.387 30.0034V8.47576H275.679V30.0034H270.387Z" fill="white"/>
<path d="M278.638 24.3927C278.638 23.0663 278.89 21.9919 279.394 21.1695C279.898 20.3206 280.667 19.6574 281.702 19.1799C282.763 18.6758 284.076 18.2912 285.641 18.0259C287.233 17.7341 289.09 17.5086 291.212 17.3494V15.3598C291.212 14.4048 290.854 13.7018 290.138 13.2508C289.421 12.7733 288.387 12.5346 287.034 12.5346C286.477 12.5346 285.853 12.5611 285.164 12.6142C284.474 12.6672 283.758 12.7601 283.015 12.8927C282.272 13.0253 281.516 13.211 280.747 13.4498L279.831 9.23181C281.025 8.88694 282.285 8.6084 283.612 8.39617C284.965 8.18395 286.225 8.07784 287.392 8.07784C289.488 8.07784 291.212 8.35638 292.565 8.91347C293.918 9.44404 294.913 10.2531 295.549 11.3408C296.213 12.4019 296.544 13.7283 296.544 15.32V23.9152C296.544 24.658 296.65 25.162 296.862 25.4273C297.075 25.6926 297.34 25.8252 297.658 25.8252C297.791 25.8252 297.95 25.8119 298.136 25.7854C298.322 25.7589 298.494 25.7058 298.653 25.6262L299.091 29.4861C298.64 29.7514 298.123 29.9636 297.539 30.1228C296.955 30.3085 296.332 30.4013 295.669 30.4013C294.608 30.4013 293.759 30.1891 293.122 29.7646C292.485 29.3137 292.021 28.6372 291.729 27.7352C291.066 28.2393 290.363 28.7035 289.62 29.128C288.877 29.5259 288.082 29.831 287.233 30.0432C286.384 30.2819 285.442 30.4013 284.407 30.4013C283.532 30.4013 282.749 30.2687 282.06 30.0034C281.37 29.7381 280.76 29.3534 280.229 28.8494C279.725 28.3188 279.327 27.6822 279.036 26.9394C278.77 26.1966 278.638 25.3477 278.638 24.3927ZM284.01 24.0345C284.01 24.963 284.222 25.666 284.646 26.1435C285.097 26.5945 285.694 26.82 286.437 26.82C286.994 26.82 287.551 26.7272 288.108 26.5415C288.692 26.3558 289.249 26.117 289.779 25.8252C290.337 25.5069 290.814 25.1355 291.212 24.711V20.2941C290.071 20.3471 289.05 20.4532 288.148 20.6124C287.273 20.7716 286.516 20.9838 285.88 21.2491C285.27 21.5144 284.805 21.8725 284.487 22.3235C284.169 22.7745 284.01 23.3448 284.01 24.0345Z" fill="white"/>
<path d="M301.358 30.0034V8.47576H306.173V10.346C307.048 9.84196 307.884 9.43077 308.68 9.11243C309.475 8.76757 310.258 8.51555 311.027 8.35638C311.823 8.17068 312.659 8.07784 313.534 8.07784C314.914 8.07784 316.054 8.32985 316.956 8.83389C317.885 9.3114 318.575 10.0011 319.026 10.9031C319.477 11.805 319.702 12.8927 319.702 14.1661V30.0034H314.41V15.8373C314.41 14.7231 314.144 13.9008 313.614 13.3702C313.11 12.8131 312.34 12.5346 311.306 12.5346C310.775 12.5346 310.258 12.6009 309.754 12.7335C309.25 12.8396 308.746 12.9856 308.242 13.1712C307.738 13.3569 307.207 13.5957 306.65 13.8875V30.0034H301.358Z" fill="white"/>
<path d="M0 8.84273C0 3.95903 3.95903 0 8.84273 0H66.3205C71.2042 0 75.1632 3.95903 75.1632 8.84273V66.3205C75.1632 71.2042 71.2042 75.1632 66.3205 75.1632H8.84273C3.95903 75.1632 0 71.2042 0 66.3205V8.84273Z" fill="url(#paint0_linear_522_1348)"/>
<path d="M49.0468 62.5986C48.3289 57.4771 47.6348 53.3367 46.9647 50.1776H27.4357C26.7656 53.3367 26.0716 57.4771 25.3536 62.5986H14.5839C16.4028 45.2236 22.0988 28.4708 31.6718 12.3403H42.8004C52.3256 28.3751 57.9976 45.1279 59.8165 62.5986H49.0468ZM45.2416 42.2799C43.2312 34.3821 40.5508 27.1306 37.2002 20.5252C33.8497 27.1306 31.1692 34.3821 29.1589 42.2799H45.2416Z" fill="white"/>
<defs>
<linearGradient id="paint0_linear_522_1348" x1="18.3727" y1="2.70799" x2="53.6285" y2="67.7574" gradientUnits="userSpaceOnUse">
<stop stop-color="#228201"/>
<stop offset="1" stop-color="#CAD737"/>
</linearGradient>
</defs>
</svg>
