<?xml version="1.0" encoding="utf-8"?>
<!-- Generator: Adobe Illustrator 25.2.0, SVG Export Plug-In . SVG Version: 6.00 Build 0)  -->
<svg version="1.1" id="Layer_1" xmlns="http://www.w3.org/2000/svg" xmlns:xlink="http://www.w3.org/1999/xlink" x="0px" y="0px"
	 viewBox="0 0 93 93" style="enable-background:new 0 0 93 93;" xml:space="preserve">
<style type="text/css">
	.st0{fill:#E3E3E3;}
	.st1{fill:#555555;}
	.st2{fill:none;stroke:#555555;stroke-width:5;}
</style>
<circle class="st0" cx="46.5" cy="46.5" r="45.2"/>
<g>
	<path class="st1" d="M81.4,75.8c-7.2-9.2-20.2-15.4-34.9-15.4c-14.6,0-27.4,6-34.7,15.1c0,0,3.5,6.1,12.5,10.8s16.8,5.5,20.8,5.5
		s15.9-0.2,24.3-6.3C77.8,79.5,81.4,75.8,81.4,75.8z"/>
	<path class="st1" d="M46,54.6c9.9,0,18-8,18-18s-8-18-18-18s-18,8-18,18S36.1,54.6,46,54.6z"/>
</g>
<circle class="st2" cx="46.5" cy="46.5" r="44"/>
</svg>
