<svg width="347" height="78" viewBox="0 0 347 78" fill="none" xmlns="http://www.w3.org/2000/svg">
<rect y="1.27325" width="75.6839" height="75.6839" rx="4" fill="url(#paint0_linear_464_25)"/>
<path d="M49.3866 64.3055C48.6637 59.1485 47.9648 54.9794 47.2901 51.7985H27.6258C26.9511 54.9794 26.2522 59.1485 25.5293 64.3055H14.685C16.5165 46.8101 22.2519 29.9413 31.8912 13.699H43.097C52.6881 29.8449 58.3994 46.7137 60.2309 64.3055H49.3866ZM45.555 43.846C43.5307 35.8936 40.8317 28.5918 37.4579 21.9406C34.0842 28.5918 31.3852 35.8936 29.3609 43.846H45.555Z" fill="white"/>
<path d="M106.425 3.08523L105.383 7.3725C104.849 7.18552 104.248 7.02524 103.58 6.89169C102.912 6.73141 102.218 6.59785 101.496 6.49101C100.802 6.38416 100.094 6.30402 99.3729 6.2506C98.6517 6.19717 97.9705 6.17046 97.3294 6.17046C95.5664 6.17046 94.1774 6.45094 93.1624 7.01189C92.174 7.54613 91.6798 8.36084 91.6798 9.45603C91.6798 9.99027 91.8134 10.4711 92.0805 10.8985C92.3744 11.2992 92.8151 11.6865 93.4028 12.0605C93.9904 12.4344 94.7651 12.795 95.7267 13.1423C96.715 13.4895 97.8904 13.8502 99.2527 14.2241C100.695 14.6248 101.951 15.0923 103.019 15.6265C104.088 16.134 104.969 16.7083 105.664 17.3494C106.385 17.9905 106.906 18.7384 107.226 19.5932C107.573 20.4213 107.747 21.3829 107.747 22.4781C107.747 24.2144 107.28 25.6836 106.345 26.8856C105.436 28.0876 104.088 29.0092 102.298 29.6503C100.535 30.2914 98.3712 30.6119 95.8068 30.6119C94.9788 30.6119 94.0973 30.5718 93.1624 30.4917C92.2274 30.4116 91.2792 30.3047 90.3175 30.1712C89.3826 30.0109 88.4744 29.8239 87.5929 29.6102C86.7114 29.3965 85.9234 29.1561 85.2289 28.889L86.3107 24.6418C87.032 24.8822 87.8066 25.1092 88.6347 25.3229C89.4627 25.5099 90.3042 25.6835 91.159 25.8438C92.0137 25.9774 92.8685 26.0842 93.7233 26.1644C94.5781 26.2445 95.3794 26.2846 96.1274 26.2846C97.4363 26.2846 98.5315 26.1644 99.413 25.924C100.294 25.6568 100.949 25.2695 101.376 24.762C101.83 24.2545 102.057 23.6401 102.057 22.9189C102.057 22.3579 101.884 21.8637 101.537 21.4363C101.189 21.009 100.668 20.635 99.9739 20.3144C99.2794 19.9672 98.3845 19.6066 97.2894 19.2326C96.2209 18.8586 94.9654 18.4446 93.523 17.9905C92.2408 17.5364 91.1189 17.0556 90.1573 16.5481C89.2223 16.0405 88.4477 15.4662 87.8333 14.8251C87.2189 14.1573 86.7515 13.4094 86.4309 12.5813C86.1371 11.7533 85.9902 10.8183 85.9902 9.77658C85.9902 8.60125 86.2172 7.53277 86.6713 6.57114C87.1255 5.5828 87.8066 4.72802 88.7148 4.00679C89.6497 3.28557 90.8251 2.73797 92.2408 2.36401C93.6832 1.96333 95.3661 1.76299 97.2894 1.76299C98.438 1.76299 99.5732 1.82977 100.695 1.96333C101.844 2.07018 102.912 2.23045 103.901 2.44414C104.916 2.63113 105.757 2.84482 106.425 3.08523Z" fill="white"/>
<path d="M109.894 19.6734C109.894 17.109 110.295 14.9721 111.096 13.2625C111.924 11.5529 113.153 10.2707 114.782 9.41596C116.412 8.56118 118.389 8.13379 120.713 8.13379C121.514 8.13379 122.315 8.17386 123.117 8.25399C123.945 8.30742 124.746 8.40091 125.521 8.53447C126.295 8.64132 126.99 8.78823 127.604 8.97522L126.883 13.4228C126.269 13.2892 125.641 13.1824 125 13.1022C124.359 12.9954 123.718 12.9152 123.077 12.8618C122.462 12.8084 121.861 12.7817 121.273 12.7817C119.991 12.7817 118.909 13.0354 118.028 13.543C117.173 14.0238 116.519 14.7717 116.065 15.7868C115.611 16.7751 115.383 18.0439 115.383 19.5932C115.383 21.0357 115.611 22.2377 116.065 23.1993C116.545 24.1343 117.227 24.8421 118.108 25.3229C119.016 25.777 120.098 26.0041 121.354 26.0041C121.968 26.0041 122.596 25.9907 123.237 25.964C123.905 25.9106 124.572 25.8305 125.24 25.7236C125.908 25.6168 126.562 25.4966 127.204 25.363L128.005 29.6102C126.936 29.904 125.694 30.1444 124.279 30.3314C122.89 30.5184 121.541 30.6119 120.232 30.6119C116.786 30.6119 114.195 29.7304 112.459 27.9674C110.749 26.1777 109.894 23.413 109.894 19.6734Z" fill="white"/>
<path d="M129.609 24.5616C129.609 23.2261 129.862 22.1442 130.37 21.3161C130.877 20.4614 131.652 19.7936 132.694 19.3127C133.762 18.8052 135.084 18.4179 136.66 18.1508C138.263 17.8569 140.133 17.6299 142.27 17.4696V15.4662C142.27 14.5046 141.909 13.7967 141.188 13.3426C140.467 12.8618 139.425 12.6214 138.063 12.6214C137.502 12.6214 136.874 12.6481 136.18 12.7015C135.485 12.755 134.764 12.8485 134.016 12.982C133.268 13.1156 132.507 13.3026 131.732 13.543L130.811 9.29576C132.013 8.94851 133.281 8.66803 134.617 8.45433C135.979 8.24064 137.248 8.13379 138.423 8.13379C140.534 8.13379 142.27 8.41427 143.632 8.97522C144.995 9.50946 145.996 10.3242 146.637 11.4194C147.305 12.4878 147.639 13.8234 147.639 15.4262V24.0808C147.639 24.8288 147.746 25.3363 147.96 25.6034C148.173 25.8705 148.44 26.0041 148.761 26.0041C148.895 26.0041 149.055 25.9907 149.242 25.964C149.429 25.9373 149.602 25.8839 149.763 25.8038L150.203 29.6903C149.749 29.9575 149.228 30.1712 148.641 30.3314C148.053 30.5184 147.425 30.6119 146.758 30.6119C145.689 30.6119 144.834 30.3982 144.193 29.9708C143.552 29.5167 143.085 28.8356 142.791 27.9274C142.123 28.4349 141.415 28.9023 140.667 29.3297C139.919 29.7304 139.118 30.0376 138.263 30.2513C137.408 30.4917 136.46 30.6119 135.418 30.6119C134.537 30.6119 133.749 30.4783 133.054 30.2112C132.36 29.9441 131.745 29.5568 131.211 29.0493C130.704 28.515 130.303 27.8739 130.009 27.126C129.742 26.3781 129.609 25.5233 129.609 24.5616ZM135.018 24.201C135.018 25.136 135.231 25.8438 135.659 26.3246C136.113 26.7787 136.714 27.0058 137.462 27.0058C138.023 27.0058 138.584 26.9123 139.145 26.7253C139.732 26.5383 140.293 26.2979 140.828 26.0041C141.389 25.6836 141.869 25.3096 142.27 24.8822V20.4347C141.121 20.4881 140.093 20.5949 139.185 20.7552C138.303 20.9155 137.542 21.1292 136.901 21.3963C136.287 21.6634 135.819 22.024 135.499 22.4781C135.178 22.9322 135.018 23.5065 135.018 24.201Z" fill="white"/>
<path d="M152.486 30.2112V8.53447H157.334V10.4177C158.216 9.91014 159.057 9.4961 159.859 9.17556C160.66 8.8283 161.448 8.57454 162.223 8.41427C163.024 8.22728 163.865 8.13379 164.747 8.13379C166.136 8.13379 167.285 8.38756 168.193 8.89508C169.128 9.3759 169.822 10.0704 170.276 10.9786C170.73 11.8868 170.957 12.982 170.957 14.2642V30.2112H165.628V15.947C165.628 14.8251 165.361 13.9971 164.827 13.4628C164.319 12.9019 163.545 12.6214 162.503 12.6214C161.969 12.6214 161.448 12.6882 160.94 12.8217C160.433 12.9286 159.925 13.0755 159.418 13.2625C158.91 13.4495 158.376 13.6899 157.815 13.9837V30.2112H152.486Z" fill="white"/>
<path d="M188.965 30.2513L188.324 28.4883C187.202 29.2095 186.094 29.7438 184.998 30.091C183.93 30.4383 182.808 30.6119 181.633 30.6119C179.282 30.6119 177.466 29.6903 176.183 27.8472C174.928 25.9774 174.3 23.2928 174.3 19.7936C174.3 17.1224 174.661 14.932 175.382 13.2224C176.103 11.5129 177.212 10.244 178.708 9.41596C180.23 8.56118 182.14 8.13379 184.437 8.13379C185.052 8.13379 185.68 8.1605 186.321 8.21393C186.988 8.26735 187.643 8.36084 188.284 8.4944V0.560951H193.653V30.2513H188.965ZM188.284 24.6819V12.5413C187.616 12.3543 187.002 12.2341 186.441 12.1807C185.88 12.1005 185.346 12.0605 184.838 12.0605C183.69 12.0605 182.741 12.2875 181.993 12.7416C181.272 13.1957 180.724 13.957 180.351 15.0255C180.003 16.094 179.83 17.523 179.83 19.3127C179.83 20.8888 179.977 22.1843 180.27 23.1993C180.591 24.2144 181.032 24.9623 181.593 25.4431C182.18 25.924 182.888 26.1644 183.716 26.1644C184.197 26.1644 184.678 26.1109 185.159 26.0041C185.639 25.8972 186.134 25.737 186.641 25.5233C187.149 25.3096 187.696 25.0291 188.284 24.6819Z" fill="white"/>
<path d="M200.521 5.44924C199.399 5.44924 198.584 5.23554 198.077 4.80815C197.596 4.35405 197.356 3.65954 197.356 2.72462C197.356 1.76299 197.596 1.06848 198.077 0.641086C198.584 0.213695 199.399 0 200.521 0C201.643 0 202.444 0.213695 202.925 0.641086C203.433 1.06848 203.686 1.76299 203.686 2.72462C203.686 3.65954 203.433 4.35405 202.925 4.80815C202.444 5.23554 201.643 5.44924 200.521 5.44924ZM197.836 30.2112V8.53447H203.165V30.2112H197.836Z" fill="white"/>
<path d="M207.345 30.2112V8.53447H212.193V10.4177C213.074 9.91014 213.916 9.4961 214.717 9.17556C215.519 8.8283 216.307 8.57454 217.081 8.41427C217.883 8.22728 218.724 8.13379 219.606 8.13379C220.995 8.13379 222.143 8.38756 223.051 8.89508C223.986 9.3759 224.681 10.0704 225.135 10.9786C225.589 11.8868 225.816 12.982 225.816 14.2642V30.2112H220.487V15.947C220.487 14.8251 220.22 13.9971 219.686 13.4628C219.178 12.9019 218.403 12.6214 217.362 12.6214C216.827 12.6214 216.307 12.6882 215.799 12.8217C215.292 12.9286 214.784 13.0755 214.276 13.2625C213.769 13.4495 213.235 13.6899 212.674 13.9837V30.2112H207.345Z" fill="white"/>
<path d="M228.644 24.5616C228.644 23.2261 228.897 22.1442 229.405 21.3161C229.912 20.4614 230.687 19.7936 231.729 19.3127C232.797 18.8052 234.12 18.4179 235.696 18.1508C237.298 17.8569 239.168 17.6299 241.305 17.4696V15.4662C241.305 14.5046 240.945 13.7967 240.223 13.3426C239.502 12.8618 238.46 12.6214 237.098 12.6214C236.537 12.6214 235.909 12.6481 235.215 12.7015C234.52 12.755 233.799 12.8485 233.051 12.982C232.303 13.1156 231.542 13.3026 230.767 13.543L229.846 9.29576C231.048 8.94851 232.317 8.66803 233.652 8.45433C235.014 8.24064 236.283 8.13379 237.459 8.13379C239.569 8.13379 241.305 8.41427 242.667 8.97522C244.03 9.50946 245.031 10.3242 245.673 11.4194C246.34 12.4878 246.674 13.8234 246.674 15.4262V24.0808C246.674 24.8288 246.781 25.3363 246.995 25.6034C247.208 25.8705 247.476 26.0041 247.796 26.0041C247.93 26.0041 248.09 25.9907 248.277 25.964C248.464 25.9373 248.638 25.8839 248.798 25.8038L249.239 29.6903C248.784 29.9575 248.264 30.1712 247.676 30.3314C247.088 30.5184 246.461 30.6119 245.793 30.6119C244.724 30.6119 243.869 30.3982 243.228 29.9708C242.587 29.5167 242.12 28.8356 241.826 27.9274C241.158 28.4349 240.45 28.9023 239.702 29.3297C238.954 29.7304 238.153 30.0376 237.298 30.2513C236.444 30.4917 235.495 30.6119 234.453 30.6119C233.572 30.6119 232.784 30.4783 232.089 30.2112C231.395 29.9441 230.781 29.5568 230.246 29.0493C229.739 28.515 229.338 27.8739 229.044 27.126C228.777 26.3781 228.644 25.5233 228.644 24.5616ZM234.053 24.201C234.053 25.136 234.267 25.8438 234.694 26.3246C235.148 26.7787 235.749 27.0058 236.497 27.0058C237.058 27.0058 237.619 26.9123 238.18 26.7253C238.767 26.5383 239.328 26.2979 239.863 26.0041C240.424 25.6836 240.904 25.3096 241.305 24.8822V20.4347C240.157 20.4881 239.128 20.5949 238.22 20.7552C237.338 20.9155 236.577 21.1292 235.936 21.3963C235.322 21.6634 234.854 22.024 234.534 22.4781C234.213 22.9322 234.053 23.5065 234.053 24.201Z" fill="white"/>
<path d="M256.044 30.2112L248.31 8.61461L253.96 8.45433L259.209 25.4431L264.257 8.45433L269.867 8.61461L262.054 30.2112H256.044Z" fill="white"/>
<path d="M274.944 5.44924C273.822 5.44924 273.007 5.23554 272.5 4.80815C272.019 4.35405 271.779 3.65954 271.779 2.72462C271.779 1.76299 272.019 1.06848 272.5 0.641086C273.007 0.213695 273.822 0 274.944 0C276.066 0 276.867 0.213695 277.348 0.641086C277.856 1.06848 278.109 1.76299 278.109 2.72462C278.109 3.65954 277.856 4.35405 277.348 4.80815C276.867 5.23554 276.066 5.44924 274.944 5.44924ZM272.259 30.2112V8.53447H277.589V30.2112H272.259Z" fill="white"/>
<path d="M280.568 24.5616C280.568 23.2261 280.821 22.1442 281.329 21.3161C281.836 20.4614 282.611 19.7936 283.653 19.3127C284.721 18.8052 286.044 18.4179 287.62 18.1508C289.222 17.8569 291.092 17.6299 293.229 17.4696V15.4662C293.229 14.5046 292.868 13.7967 292.147 13.3426C291.426 12.8618 290.384 12.6214 289.022 12.6214C288.461 12.6214 287.833 12.6481 287.139 12.7015C286.444 12.755 285.723 12.8485 284.975 12.982C284.227 13.1156 283.466 13.3026 282.691 13.543L281.77 9.29576C282.972 8.94851 284.241 8.66803 285.576 8.45433C286.938 8.24064 288.207 8.13379 289.383 8.13379C291.493 8.13379 293.229 8.41427 294.591 8.97522C295.954 9.50946 296.955 10.3242 297.596 11.4194C298.264 12.4878 298.598 13.8234 298.598 15.4262V24.0808C298.598 24.8288 298.705 25.3363 298.919 25.6034C299.132 25.8705 299.4 26.0041 299.72 26.0041C299.854 26.0041 300.014 25.9907 300.201 25.964C300.388 25.9373 300.562 25.8839 300.722 25.8038L301.163 29.6903C300.708 29.9575 300.188 30.1712 299.6 30.3314C299.012 30.5184 298.385 30.6119 297.717 30.6119C296.648 30.6119 295.793 30.3982 295.152 29.9708C294.511 29.5167 294.044 28.8356 293.75 27.9274C293.082 28.4349 292.374 28.9023 291.626 29.3297C290.878 29.7304 290.077 30.0376 289.222 30.2513C288.368 30.4917 287.419 30.6119 286.377 30.6119C285.496 30.6119 284.708 30.4783 284.013 30.2112C283.319 29.9441 282.705 29.5568 282.17 29.0493C281.663 28.515 281.262 27.8739 280.968 27.126C280.701 26.3781 280.568 25.5233 280.568 24.5616ZM285.977 24.201C285.977 25.136 286.19 25.8438 286.618 26.3246C287.072 26.7787 287.673 27.0058 288.421 27.0058C288.982 27.0058 289.543 26.9123 290.104 26.7253C290.691 26.5383 291.252 26.2979 291.787 26.0041C292.348 25.6836 292.828 25.3096 293.229 24.8822V20.4347C292.08 20.4881 291.052 20.5949 290.144 20.7552C289.262 20.9155 288.501 21.1292 287.86 21.3963C287.246 21.6634 286.778 22.024 286.458 22.4781C286.137 22.9322 285.977 23.5065 285.977 24.201Z" fill="white"/>
<path d="M303.445 30.2112V8.53447H308.293V10.4177C309.175 9.91014 310.016 9.4961 310.818 9.17556C311.619 8.8283 312.407 8.57454 313.182 8.41427C313.983 8.22728 314.824 8.13379 315.706 8.13379C317.095 8.13379 318.244 8.38756 319.152 8.89508C320.087 9.3759 320.781 10.0704 321.235 10.9786C321.689 11.8868 321.916 12.982 321.916 14.2642V30.2112H316.587V15.947C316.587 14.8251 316.32 13.9971 315.786 13.4628C315.279 12.9019 314.504 12.6214 313.462 12.6214C312.928 12.6214 312.407 12.6882 311.9 12.8217C311.392 12.9286 310.884 13.0755 310.377 13.2625C309.869 13.4495 309.335 13.6899 308.774 13.9837V30.2112H303.445Z" fill="white"/>
<path d="M84.9484 76.9572L94.124 48.7093H100.655L109.911 76.9572H103.86L102.017 70.947H92.5613L90.6781 76.9572H84.9484ZM93.563 66.4193H100.976L97.2894 53.277L93.563 66.4193Z" fill="white"/>
<path d="M117.963 77.3578C116.708 77.3578 115.613 77.1308 114.678 76.6767C113.743 76.2226 113.022 75.5281 112.514 74.5931C112.007 73.6582 111.753 72.4829 111.753 71.0672V55.2804H117.082V69.8251C117.082 70.8401 117.336 71.6148 117.843 72.149C118.378 72.6565 119.125 72.9103 120.087 72.9103C120.621 72.9103 121.129 72.8569 121.61 72.75C122.09 72.6432 122.571 72.4963 123.052 72.3093C123.533 72.0956 124.04 71.8552 124.575 71.5881V55.2804H129.904V70.987C129.904 71.4411 129.944 71.8017 130.024 72.0689C130.131 72.336 130.278 72.5363 130.465 72.6699C130.652 72.7767 130.865 72.8302 131.106 72.8302C131.426 72.8302 131.747 72.7634 132.067 72.6298L132.508 76.4363C132.214 76.6233 131.88 76.7835 131.506 76.9171C131.132 77.0507 130.718 77.1575 130.264 77.2376C129.837 77.3178 129.383 77.3578 128.902 77.3578C128.021 77.3578 127.273 77.1709 126.658 76.7969C126.044 76.3962 125.563 75.8353 125.216 75.114C124.441 75.5681 123.666 75.9688 122.892 76.3161C122.117 76.6633 121.329 76.9171 120.528 77.0774C119.726 77.2643 118.872 77.3578 117.963 77.3578Z" fill="white"/>
<path d="M133.802 66.4193C133.802 63.8549 134.203 61.718 135.004 60.0084C135.832 58.2989 137.061 57.0167 138.69 56.1619C140.32 55.3071 142.296 54.8797 144.62 54.8797C145.422 54.8797 146.223 54.9198 147.024 54.9999C147.852 55.0534 148.654 55.1468 149.428 55.2804C150.203 55.3873 150.898 55.5342 151.512 55.7211L150.791 60.1687C150.176 60.0351 149.549 59.9283 148.908 59.8481C148.266 59.7413 147.625 59.6612 146.984 59.6077C146.37 59.5543 145.769 59.5276 145.181 59.5276C143.899 59.5276 142.817 59.7814 141.936 60.2889C141.081 60.7697 140.426 61.5176 139.972 62.5327C139.518 63.521 139.291 64.7899 139.291 66.3392C139.291 67.7816 139.518 68.9836 139.972 69.9453C140.453 70.8802 141.134 71.5881 142.016 72.0689C142.924 72.523 144.006 72.75 145.261 72.75C145.876 72.75 146.503 72.7367 147.145 72.71C147.812 72.6565 148.48 72.5764 149.148 72.4695C149.816 72.3627 150.47 72.2425 151.111 72.1089L151.913 76.3561C150.844 76.65 149.602 76.8904 148.186 77.0774C146.797 77.2643 145.448 77.3578 144.139 77.3578C140.694 77.3578 138.103 76.4763 136.366 74.7134C134.657 72.9237 133.802 70.159 133.802 66.4193Z" fill="white"/>
<path d="M162.687 77.3578C161.298 77.3578 160.123 77.0907 159.161 76.5565C158.226 76.0222 157.518 75.2075 157.038 74.1123C156.583 73.0171 156.356 71.6148 156.356 69.9052V59.167H153.031V55.641L156.356 55.2804L156.997 50.4722H161.685V55.2804H167.816V59.2071H161.685V69.4645C161.685 70.6932 161.912 71.5613 162.367 72.0689C162.821 72.5764 163.529 72.8302 164.49 72.8302C165.024 72.8302 165.572 72.7901 166.133 72.71C166.694 72.6031 167.282 72.4696 167.896 72.3093L168.617 76.3561C167.549 76.7301 166.507 76.9839 165.492 77.1174C164.504 77.2777 163.569 77.3578 162.687 77.3578Z" fill="white"/>
<path d="M173.679 52.1952C172.557 52.1952 171.742 51.9815 171.234 51.5541C170.754 51.1 170.513 50.4055 170.513 49.4705C170.513 48.5089 170.754 47.8144 171.234 47.387C171.742 46.9596 172.557 46.7459 173.679 46.7459C174.8 46.7459 175.602 46.9596 176.083 47.387C176.59 47.8144 176.844 48.5089 176.844 49.4705C176.844 50.4055 176.59 51.1 176.083 51.5541C175.602 51.9815 174.8 52.1952 173.679 52.1952ZM170.994 76.9572V55.2804H176.323V76.9572H170.994Z" fill="white"/>
<path d="M179.661 66.0987C179.661 64.2556 179.821 62.6395 180.142 61.2505C180.489 59.8615 181.037 58.6995 181.784 57.7646C182.559 56.8297 183.601 56.1218 184.91 55.641C186.219 55.1335 187.835 54.8797 189.758 54.8797C191.708 54.8797 193.324 55.1335 194.606 55.641C195.915 56.1218 196.957 56.8297 197.732 57.7646C198.506 58.6995 199.054 59.8615 199.374 61.2505C199.722 62.6395 199.895 64.2556 199.895 66.0987C199.895 67.9419 199.708 69.5713 199.334 70.987C198.987 72.4028 198.413 73.5781 197.611 74.513C196.81 75.4479 195.768 76.1558 194.486 76.6366C193.204 77.1174 191.628 77.3578 189.758 77.3578C187.915 77.3578 186.339 77.1174 185.03 76.6366C183.748 76.1558 182.706 75.4479 181.905 74.513C181.13 73.5781 180.556 72.4028 180.182 70.987C179.835 69.5713 179.661 67.9419 179.661 66.0987ZM185.11 66.0987C185.11 67.8884 185.27 69.3175 185.591 70.386C185.912 71.4278 186.419 72.1757 187.114 72.6298C187.808 73.0839 188.69 73.311 189.758 73.311C190.88 73.311 191.775 73.0839 192.443 72.6298C193.137 72.1757 193.631 71.4278 193.925 70.386C194.246 69.3175 194.406 67.8884 194.406 66.0987C194.406 64.309 194.259 62.8933 193.965 61.8515C193.698 60.8098 193.217 60.0618 192.523 59.6077C191.855 59.1536 190.933 58.9266 189.758 58.9266C188.609 58.9266 187.688 59.1536 186.993 59.6077C186.326 60.0618 185.845 60.8098 185.551 61.8515C185.257 62.8933 185.11 64.309 185.11 66.0987Z" fill="white"/>
<path d="M203.236 76.9572V55.2804H208.084V57.1636C208.966 56.6561 209.807 56.242 210.609 55.9215C211.41 55.5742 212.198 55.3205 212.973 55.1602C213.774 54.9732 214.615 54.8797 215.497 54.8797C216.886 54.8797 218.035 55.1335 218.943 55.641C219.878 56.1218 220.572 56.8163 221.026 57.7245C221.48 58.6328 221.708 59.7279 221.708 61.0101V76.9572H216.378V62.693C216.378 61.5711 216.111 60.743 215.577 60.2088C215.07 59.6478 214.295 59.3673 213.253 59.3673C212.719 59.3673 212.198 59.4341 211.691 59.5677C211.183 59.6745 210.675 59.8214 210.168 60.0084C209.66 60.1954 209.126 60.4358 208.565 60.7296V76.9572H203.236Z" fill="white"/>
<path d="M236.935 76.9572V48.9096H242.424V61.9317H254.364V48.9096H259.853V76.9572H254.364V66.86H242.424V76.9572H236.935Z" fill="white"/>
<path d="M263.318 66.0987C263.318 64.2556 263.479 62.6395 263.799 61.2505C264.146 59.8615 264.694 58.6995 265.442 57.7646C266.217 56.8297 267.258 56.1218 268.567 55.641C269.876 55.1335 271.492 54.8797 273.415 54.8797C275.365 54.8797 276.982 55.1335 278.264 55.641C279.573 56.1218 280.614 56.8297 281.389 57.7646C282.164 58.6995 282.711 59.8615 283.032 61.2505C283.379 62.6395 283.553 64.2556 283.553 66.0987C283.553 67.9419 283.366 69.5713 282.992 70.987C282.644 72.4028 282.07 73.5781 281.269 74.513C280.467 75.4479 279.426 76.1558 278.144 76.6366C276.861 77.1174 275.285 77.3578 273.415 77.3578C271.572 77.3578 269.996 77.1174 268.687 76.6366C267.405 76.1558 266.364 75.4479 265.562 74.513C264.788 73.5781 264.213 72.4028 263.839 70.987C263.492 69.5713 263.318 67.9419 263.318 66.0987ZM268.768 66.0987C268.768 67.8884 268.928 69.3175 269.248 70.386C269.569 71.4278 270.077 72.1757 270.771 72.6298C271.466 73.0839 272.347 73.311 273.415 73.311C274.537 73.311 275.432 73.0839 276.1 72.6298C276.795 72.1757 277.289 71.4278 277.583 70.386C277.903 69.3175 278.063 67.8884 278.063 66.0987C278.063 64.309 277.916 62.8933 277.623 61.8515C277.356 60.8098 276.875 60.0618 276.18 59.6077C275.512 59.1536 274.591 58.9266 273.415 58.9266C272.267 58.9266 271.345 59.1536 270.651 59.6077C269.983 60.0618 269.502 60.8098 269.208 61.8515C268.915 62.8933 268.768 64.309 268.768 66.0987Z" fill="white"/>
<path d="M293.065 77.3578C291.81 77.3578 290.714 77.1308 289.779 76.6767C288.845 76.2226 288.123 75.5281 287.616 74.5931C287.108 73.6582 286.855 72.4829 286.855 71.0672V55.2804H292.184V69.8251C292.184 70.8401 292.437 71.6148 292.945 72.149C293.479 72.6565 294.227 72.9103 295.189 72.9103C295.723 72.9103 296.23 72.8569 296.711 72.75C297.192 72.6432 297.673 72.4963 298.154 72.3093C298.635 72.0956 299.142 71.8552 299.676 71.5881V55.2804H305.005V70.987C305.005 71.4411 305.045 71.8017 305.126 72.0689C305.232 72.336 305.379 72.5363 305.566 72.6699C305.753 72.7767 305.967 72.8302 306.207 72.8302C306.528 72.8302 306.848 72.7634 307.169 72.6298L307.61 76.4363C307.316 76.6233 306.982 76.7835 306.608 76.9171C306.234 77.0507 305.82 77.1575 305.366 77.2376C304.939 77.3178 304.484 77.3578 304.004 77.3578C303.122 77.3578 302.374 77.1709 301.76 76.7969C301.145 76.3962 300.665 75.8353 300.317 75.114C299.543 75.5681 298.768 75.9688 297.993 76.3161C297.219 76.6633 296.431 76.9171 295.629 77.0774C294.828 77.2643 293.973 77.3578 293.065 77.3578Z" fill="white"/>
<path d="M308.816 76.1157L309.457 72.1891C309.938 72.3493 310.472 72.5096 311.06 72.6699C311.647 72.8034 312.262 72.9236 312.903 73.0305C313.571 73.1373 314.225 73.2175 314.866 73.2709C315.507 73.3243 316.108 73.351 316.669 73.351C317.951 73.351 318.886 73.1641 319.474 72.7901C320.062 72.3894 320.355 71.8018 320.355 71.0271C320.355 70.5997 320.235 70.2391 319.995 69.9453C319.781 69.6247 319.434 69.3576 318.953 69.1439C318.499 68.9035 317.925 68.6898 317.23 68.5028C316.562 68.2891 315.788 68.0754 314.906 67.8617C313.971 67.648 313.157 67.3676 312.462 67.0203C311.768 66.6463 311.166 66.2056 310.659 65.6981C310.178 65.1905 309.818 64.6029 309.577 63.9351C309.363 63.2673 309.257 62.506 309.257 61.6512C309.257 59.4341 309.978 57.7513 311.42 56.6026C312.863 55.454 315 54.8797 317.831 54.8797C318.713 54.8797 319.541 54.9331 320.315 55.04C321.09 55.1201 321.825 55.2403 322.519 55.4006C323.24 55.5342 323.895 55.7078 324.482 55.9215L323.801 59.9283C323.214 59.7413 322.626 59.581 322.038 59.4475C321.451 59.3139 320.81 59.2071 320.115 59.1269C319.447 59.0468 318.686 59.0067 317.831 59.0067C316.683 59.0067 315.814 59.1937 315.227 59.5677C314.639 59.9149 314.345 60.4492 314.345 61.1704C314.345 61.5978 314.452 61.9584 314.666 62.2522C314.879 62.5193 315.187 62.7464 315.587 62.9334C315.988 63.1204 316.482 63.294 317.07 63.4543C317.658 63.6145 318.312 63.7748 319.033 63.9351C320.022 64.1755 320.916 64.4693 321.718 64.8166C322.519 65.1371 323.2 65.5378 323.761 66.0186C324.349 66.4994 324.803 67.1138 325.123 67.8617C325.471 68.583 325.644 69.4645 325.644 70.5062C325.644 71.4946 325.484 72.3761 325.164 73.1507C324.87 73.8986 324.442 74.5397 323.881 75.074C323.32 75.6082 322.666 76.049 321.918 76.3962C321.17 76.7168 320.342 76.9572 319.434 77.1174C318.526 77.2777 317.577 77.3578 316.589 77.3578C315.627 77.3578 314.706 77.3044 313.824 77.1976C312.943 77.1174 312.075 76.9839 311.22 76.7969C310.392 76.6099 309.59 76.3829 308.816 76.1157Z" fill="white"/>
<path d="M337.744 77.3578C336.115 77.3578 334.672 77.1575 333.417 76.7568C332.161 76.3294 331.093 75.6883 330.211 74.8336C329.357 73.9521 328.702 72.8435 328.248 71.5079C327.821 70.1456 327.607 68.5295 327.607 66.6597C327.607 64.496 327.861 62.6663 328.368 61.1704C328.903 59.6478 329.651 58.4324 330.612 57.5242C331.574 56.5893 332.696 55.9215 333.978 55.5208C335.26 55.0934 336.662 54.8797 338.185 54.8797C341.203 54.8797 343.421 55.641 344.836 57.1636C346.279 58.6862 347 61.1704 347 64.6162C347 64.8566 347 65.1638 347 65.5378C347 65.9118 346.973 66.2724 346.92 66.6196C346.305 66.6731 345.517 66.7398 344.556 66.82C343.594 66.9001 342.512 66.9802 341.31 67.0604C340.108 67.1405 338.813 67.2073 337.424 67.2607C336.035 67.3141 334.606 67.3676 333.136 67.421C333.11 67.5011 333.096 67.5946 333.096 67.7015C333.096 67.8083 333.096 67.9152 333.096 68.022C333.096 69.2508 333.297 70.2391 333.697 70.987C334.125 71.7083 334.753 72.2559 335.581 72.6298C336.409 72.9771 337.45 73.1507 338.706 73.1507C339.507 73.1507 340.322 73.1106 341.15 73.0305C342.005 72.9236 342.846 72.8034 343.674 72.6699C344.529 72.5096 345.357 72.336 346.159 72.149L346.8 76.0757C345.945 76.3428 345.037 76.5832 344.075 76.7969C343.113 76.9839 342.112 77.1174 341.07 77.1976C340.028 77.3044 338.92 77.3578 337.744 77.3578ZM333.177 63.9751C334.111 63.9751 335.006 63.9618 335.861 63.9351C336.743 63.8817 337.571 63.8416 338.345 63.8149C339.12 63.7614 339.788 63.7214 340.349 63.6947C340.91 63.6412 341.35 63.6012 341.671 63.5745C341.644 62.3991 341.484 61.4509 341.19 60.7296C340.923 60.0084 340.496 59.4875 339.908 59.167C339.347 58.8464 338.639 58.6862 337.784 58.6862C337.25 58.6862 336.729 58.7663 336.222 58.9266C335.714 59.0869 335.247 59.3673 334.819 59.768C334.392 60.1687 334.031 60.7029 333.737 61.3707C333.47 62.0385 333.283 62.9067 333.177 63.9751Z" fill="white"/>
<defs>
<linearGradient id="paint0_linear_464_25" x1="18.5" y1="4" x2="54" y2="69.5" gradientUnits="userSpaceOnUse">
<stop stop-color="#228201"/>
<stop offset="1" stop-color="#CAD737"/>
</linearGradient>
</defs>
</svg>
